<svg width="236" height="28" viewBox="0 0 236 28" fill="none" xmlns="http://www.w3.org/2000/svg">
<path d="M12.6147 0.599999C16.748 0.599999 19.8947 1.74667 22.0547 4.04C24.2147 6.33333 25.2947 9.58667 25.2947 13.8C25.2947 17.9867 24.2147 21.24 22.0547 23.56C19.8947 25.8533 16.748 27 12.6147 27H0.494688V0.599999H12.6147ZM11.6147 21.04C13.588 21.04 14.9614 20.4533 15.7347 19.28C16.508 18.08 16.8947 16.2533 16.8947 13.8C16.8947 11.3467 16.508 9.53333 15.7347 8.36C14.9614 7.16 13.588 6.56 11.6147 6.56H8.65469V21.04H11.6147ZM42.6866 0.599999C45.9666 0.599999 48.4999 1.36 50.2866 2.88C52.0999 4.37333 53.0066 6.37333 53.0066 8.88C53.0066 11.68 52.1266 13.8 50.3666 15.24C48.6066 16.68 46.0732 17.4 42.7666 17.4L41.9666 17.84H37.1666V27H29.1666V0.599999H42.6866ZM41.3666 12.28C42.5132 12.28 43.3666 12.0667 43.9266 11.64C44.5132 11.1867 44.8066 10.4533 44.8066 9.44C44.8066 8.42667 44.5132 7.69333 43.9266 7.24C43.3666 6.78667 42.5132 6.56 41.3666 6.56H37.1666V12.28H41.3666ZM46.2066 14L54.5266 27H45.6066L39.1666 15.44L46.2066 14ZM60.9678 19.4C62.4078 19.4 63.5145 19.7467 64.2878 20.44C65.0611 21.1333 65.4478 22.1067 65.4478 23.36C65.4478 24.6133 65.0611 25.5867 64.2878 26.28C63.5145 26.9733 62.4078 27.32 60.9678 27.32C59.5811 27.32 58.4878 26.9733 57.6878 26.28C56.8878 25.5867 56.4878 24.6133 56.4878 23.36C56.4878 22.1067 56.8878 21.1333 57.6878 20.44C58.4878 19.7467 59.5811 19.4 60.9678 19.4ZM101.761 0.599999V27H94.5609V16.44L94.7209 7.92H94.6409L88.8409 27H82.2809L76.5609 7.92H76.4409L76.6009 16.44V27H69.4009V0.599999H80.9209L84.4809 13.12L85.8009 18.36H85.8809L87.2009 13.12L90.7609 0.599999H101.761ZM106.588 27V0.599999H127.868V6.72H114.748V11H125.228V16.68H114.748V20.88H128.388V27H106.588ZM143.826 0.599999C147.959 0.599999 151.106 1.74667 153.266 4.04C155.426 6.33333 156.506 9.58667 156.506 13.8C156.506 17.9867 155.426 21.24 153.266 23.56C151.106 25.8533 147.959 27 143.826 27H131.706V0.599999H143.826ZM142.826 21.04C144.799 21.04 146.172 20.4533 146.946 19.28C147.719 18.08 148.106 16.2533 148.106 13.8C148.106 11.3467 147.719 9.53333 146.946 8.36C146.172 7.16 144.799 6.56 142.826 6.56H139.866V21.04H142.826ZM173.898 0.599999C177.178 0.599999 179.711 1.36 181.498 2.88C183.311 4.37333 184.218 6.37333 184.218 8.88C184.218 11.68 183.338 13.8 181.578 15.24C179.818 16.68 177.284 17.4 173.978 17.4L173.178 17.84H168.378V27H160.378V0.599999H173.898ZM172.578 12.28C173.724 12.28 174.578 12.0667 175.138 11.64C175.724 11.1867 176.018 10.4533 176.018 9.44C176.018 8.42667 175.724 7.69333 175.138 7.24C174.578 6.78667 173.724 6.56 172.578 6.56H168.378V12.28H172.578ZM177.418 14L185.738 27H176.818L170.378 15.44L177.418 14ZM213.347 27H204.947L203.467 21.52H195.427L193.907 27H185.747L194.627 0.599999H204.427L213.347 27ZM196.787 16.24H202.147L199.467 6.4L196.787 16.24ZM235.564 0.599999L226.324 17.64V27H218.124V17.64L208.844 0.599999H217.124L220.324 7.2L222.284 11.8L224.204 7.2L227.444 0.599999H235.564Z" fill="white"/>
</svg>
