<svg width="216" height="28" viewBox="0 0 216 28" fill="none" xmlns="http://www.w3.org/2000/svg">
<path d="M9.02578 20.88H21.5858V27H0.865781V0.599999H9.02578V20.88ZM50.0464 27H41.6464L40.1664 21.52H32.1264L30.6064 27H22.4464L31.3264 0.599999H41.1264L50.0464 27ZM33.4864 16.24H38.8464L36.1664 6.4L33.4864 16.24ZM77.2302 0.599999V27H68.2702L61.0702 13.92L59.3902 10.36H59.3102L59.4702 15.56V27H52.3502V0.599999H61.2702L68.4702 13.68L70.1902 17.24H70.2302L70.0702 12.04V0.599999H77.2302ZM94.2358 0.599999C98.3691 0.599999 101.516 1.74667 103.676 4.04C105.836 6.33333 106.916 9.58667 106.916 13.8C106.916 17.9867 105.836 21.24 103.676 23.56C101.516 25.8533 98.3691 27 94.2358 27H82.1158V0.599999H94.2358ZM93.2358 21.04C95.2091 21.04 96.5824 20.4533 97.3558 19.28C98.1291 18.08 98.5158 16.2533 98.5158 13.8C98.5158 11.3467 98.1291 9.53333 97.3558 8.36C96.5824 7.16 95.2091 6.56 93.2358 6.56H90.2758V21.04H93.2358ZM134.812 27H126.412L124.932 21.52H116.892L115.372 27H107.212L116.092 0.599999H125.892L134.812 27ZM118.252 16.24H123.612L120.932 6.4L118.252 16.24ZM147.14 27.4C144.82 27.4 142.753 26.8933 140.94 25.88C139.127 24.8667 137.7 23.3467 136.66 21.32C135.62 19.2933 135.1 16.8133 135.1 13.88C135.1 11 135.633 8.54667 136.7 6.52C137.793 4.46667 139.353 2.90667 141.38 1.84C143.407 0.746666 145.807 0.199999 148.58 0.199999C151.7 0.199999 154.207 0.759999 156.1 1.88C158.02 3 159.5 4.77333 160.54 7.2L152.94 10.04C152.673 8.73333 152.167 7.81333 151.42 7.28C150.673 6.72 149.74 6.44 148.62 6.44C147.473 6.44 146.513 6.72 145.74 7.28C144.993 7.81333 144.433 8.62667 144.06 9.72C143.687 10.8133 143.5 12.1733 143.5 13.8C143.5 15.56 143.7 17 144.1 18.12C144.527 19.24 145.167 20.0667 146.02 20.6C146.873 21.1067 147.927 21.36 149.18 21.36C149.82 21.36 150.407 21.2933 150.94 21.16C151.473 21 151.94 20.7733 152.34 20.48C152.767 20.1867 153.087 19.8267 153.3 19.4C153.513 18.9467 153.62 18.4267 153.62 17.84V17.64H148.42V12.4H160.5V27H155.02L154.38 20.32L155.66 21.6C155.18 23.4667 154.22 24.9067 152.78 25.92C151.34 26.9067 149.46 27.4 147.14 27.4ZM164.967 27V0.599999H186.247V6.72H173.127V11H183.607V16.68H173.127V20.88H186.767V27H164.967ZM203.605 0.599999C206.885 0.599999 209.418 1.36 211.205 2.88C213.018 4.37333 213.925 6.37333 213.925 8.88C213.925 11.68 213.045 13.8 211.285 15.24C209.525 16.68 206.991 17.4 203.685 17.4L202.885 17.84H198.085V27H190.085V0.599999H203.605ZM202.285 12.28C203.431 12.28 204.285 12.0667 204.845 11.64C205.431 11.1867 205.725 10.4533 205.725 9.44C205.725 8.42667 205.431 7.69333 204.845 7.24C204.285 6.78667 203.431 6.56 202.285 6.56H198.085V12.28H202.285ZM207.125 14L215.445 27H206.525L200.085 15.44L207.125 14Z" fill="white"/>
</svg>
