<svg width="220" height="28" viewBox="0 0 220 28" fill="none" xmlns="http://www.w3.org/2000/svg">
<path d="M25.9473 0.599999V6.72H17.5473V27H9.38734V6.72H0.907344V0.599999H25.9473ZM40.3714 0.199999C43.1181 0.199999 45.4647 0.746666 47.4114 1.84C49.3847 2.90667 50.8914 4.45333 51.9314 6.48C52.9981 8.50667 53.5314 10.9467 53.5314 13.8C53.5314 16.6533 52.9981 19.0933 51.9314 21.12C50.8914 23.1467 49.3847 24.7067 47.4114 25.8C45.4647 26.8667 43.1181 27.4 40.3714 27.4C37.6514 27.4 35.2914 26.8667 33.2914 25.8C31.3181 24.7067 29.7981 23.1467 28.7314 21.12C27.6647 19.0933 27.1314 16.6533 27.1314 13.8C27.1314 10.9467 27.6647 8.50667 28.7314 6.48C29.7981 4.45333 31.3181 2.90667 33.2914 1.84C35.2914 0.746666 37.6514 0.199999 40.3714 0.199999ZM40.3714 6.44C39.2781 6.44 38.3714 6.72 37.6514 7.28C36.9581 7.81333 36.4247 8.61333 36.0514 9.68C35.7047 10.7467 35.5314 12.12 35.5314 13.8C35.5314 15.4533 35.7047 16.8267 36.0514 17.92C36.4247 18.9867 36.9581 19.8 37.6514 20.36C38.3714 20.8933 39.2781 21.16 40.3714 21.16C41.4381 21.16 42.3314 20.8933 43.0514 20.36C43.7714 19.8 44.3047 18.9867 44.6514 17.92C44.9981 16.8267 45.1714 15.4533 45.1714 13.8C45.1714 12.12 44.9981 10.7467 44.6514 9.68C44.3047 8.61333 43.7714 7.81333 43.0514 7.28C42.3314 6.72 41.4381 6.44 40.3714 6.44ZM82.3473 0.599999V27H73.3873L66.1873 13.92L64.5073 10.36H64.4273L64.5873 15.56V27H57.4673V0.599999H66.3873L73.5873 13.68L75.3073 17.24H75.3473L75.1873 12.04V0.599999H82.3473ZM110.713 0.599999V6.72H102.313V27H94.153V6.72H85.673V0.599999H110.713ZM135.906 27H127.506L126.026 21.52H117.986L116.466 27H108.306L117.186 0.599999H126.986L135.906 27ZM119.346 16.24H124.706L122.026 6.4L119.346 16.24ZM151.73 0.599999C155.01 0.599999 157.543 1.36 159.33 2.88C161.143 4.37333 162.05 6.37333 162.05 8.88C162.05 11.68 161.17 13.8 159.41 15.24C157.65 16.68 155.116 17.4 151.81 17.4L151.01 17.84H146.21V27H138.21V0.599999H151.73ZM150.41 12.28C151.556 12.28 152.41 12.0667 152.97 11.64C153.556 11.1867 153.85 10.4533 153.85 9.44C153.85 8.42667 153.556 7.69333 152.97 7.24C152.41 6.78667 151.556 6.56 150.41 6.56H146.21V12.28H150.41ZM155.25 14L163.57 27H154.65L148.21 15.44L155.25 14ZM179.659 0.599999C182.939 0.599999 185.473 1.36 187.259 2.88C189.073 4.37333 189.979 6.37333 189.979 8.88C189.979 11.68 189.099 13.8 187.339 15.24C185.579 16.68 183.046 17.4 179.739 17.4L178.939 17.84H174.139V27H166.139V0.599999H179.659ZM178.339 12.28C179.486 12.28 180.339 12.0667 180.899 11.64C181.486 11.1867 181.779 10.4533 181.779 9.44C181.779 8.42667 181.486 7.69333 180.899 7.24C180.339 6.78667 179.486 6.56 178.339 6.56H174.139V12.28H178.339ZM183.179 14L191.499 27H182.579L176.139 15.44L183.179 14ZM219.109 27H210.709L209.229 21.52H201.189L199.669 27H191.509L200.389 0.599999H210.189L219.109 27ZM202.549 16.24H207.909L205.229 6.4L202.549 16.24Z" fill="white"/>
</svg>
