<?xml version="1.0" encoding="UTF-8"?>
<!-- Creator: CorelDRAW X8 -->
<svg xmlns="http://www.w3.org/2000/svg" xmlns:xlink="http://www.w3.org/1999/xlink" xml:space="preserve" width="115.038mm" height="31.5184mm" version="1.1" style="shape-rendering:geometricPrecision; text-rendering:geometricPrecision; image-rendering:optimizeQuality; fill-rule:evenodd; clip-rule:evenodd" viewBox="0 0 6424 1760">
 <defs>
  <style type="text/css">
   <![CDATA[
    .fil7 {fill:#00A0E3;fill-rule:nonzero}
    .fil0 {fill:#303358;fill-rule:nonzero}
    .fil4 {fill:url(#id0)}
    .fil6 {fill:url(#id1)}
    .fil5 {fill:url(#id2)}
    .fil3 {fill:url(#id3)}
    .fil2 {fill:url(#id4)}
    .fil1 {fill:url(#id5)}
   ]]>
  </style>
  <linearGradient id="id0" gradientUnits="userSpaceOnUse" x1="2718.07" y1="1018.84" x2="3218.07" y2="1018.84">
   <stop offset="0" style="stop-opacity:1; stop-color:#217ABE"></stop>
   <stop offset="0" style="stop-opacity:1; stop-color:#217ABE"></stop>
   <stop offset="1" style="stop-opacity:1; stop-color:#0DB8D6"></stop>
  </linearGradient>
  <linearGradient id="id1" gradientUnits="userSpaceOnUse" xlink:href="#id0" x1="2685.63" y1="741.761" x2="3185.7" y2="741.761">
  </linearGradient>
  <linearGradient id="id2" gradientUnits="userSpaceOnUse" xlink:href="#id0" x1="2542.78" y1="816.44" x2="2934.64" y2="816.44">
  </linearGradient>
  <linearGradient id="id3" gradientUnits="userSpaceOnUse" xlink:href="#id0" x1="3003.51" y1="936.728" x2="3361.84" y2="936.728">
  </linearGradient>
  <linearGradient id="id4" gradientUnits="userSpaceOnUse" x1="2770.82" y1="318.571" x2="3352.27" y2="-702.1">
   <stop offset="0" style="stop-opacity:1; stop-color:#0DB8D6"></stop>
   <stop offset="0.988235" style="stop-opacity:1; stop-color:#2AA6DF"></stop>
   <stop offset="1" style="stop-opacity:1; stop-color:#2AA6DF"></stop>
  </linearGradient>
  <linearGradient id="id5" gradientUnits="userSpaceOnUse" xlink:href="#id0" x1="3170.82" y1="1537.59" x2="2206.95" y2="2501.46">
  </linearGradient>
 </defs>
 <g id="Layer_x0020_1">
  <metadata id="CorelCorpID_0Corel-Layer"></metadata>
  <g id="_2356856130576">
   <path class="fil0" d="M616 877c0,-31 -4,-60 -11,-89 -8,-28 -20,-53 -36,-75 -16,-22 -38,-39 -64,-53 -27,-13 -58,-20 -95,-20 -36,0 -68,7 -94,20 -25,14 -47,31 -64,53 -18,22 -30,47 -38,76 -9,29 -13,59 -13,91 0,67 18,123 53,166 35,44 87,66 156,66 35,0 65,-7 91,-19 26,-13 47,-30 64,-51 17,-22 30,-47 38,-75 9,-29 13,-59 13,-90zm203 -2c0,58 -10,112 -29,161 -19,48 -47,91 -83,126 -36,36 -80,63 -130,83 -51,20 -108,30 -170,30 -62,0 -118,-9 -168,-28 -51,-19 -93,-45 -128,-79 -36,-35 -63,-76 -82,-125 -19,-49 -29,-103 -29,-163 0,-56 9,-109 28,-158 19,-49 46,-92 81,-127 35,-36 78,-64 129,-85 51,-21 108,-31 172,-31 64,0 122,10 173,30 50,19 93,47 129,82 35,35 61,77 80,125 18,48 27,101 27,159z"></path>
   <path class="fil0" d="M1161 624c12,-21 27,-39 46,-57 19,-17 40,-32 64,-44 24,-12 50,-22 77,-29 28,-7 56,-11 84,-11 58,0 106,10 143,30 37,20 66,48 86,83 14,27 24,57 29,91 5,34 8,65 8,92l0 479 -200 0 0 -430c0,-24 -2,-48 -5,-71 -3,-23 -9,-41 -20,-56 -12,-20 -28,-34 -49,-43 -21,-9 -45,-13 -71,-13 -27,0 -54,7 -82,21 -29,15 -53,35 -74,61 -21,30 -32,68 -32,115l0 416 -201 0 0 -581 -107 0 0 -178 304 0 0 125z"></path>
   <path class="fil0" d="M2270 741l0 -99 -17 0c-40,0 -74,6 -103,19 -29,13 -53,30 -72,52 -18,22 -32,47 -41,75 -8,29 -13,58 -13,89 0,73 19,131 57,172 37,42 93,63 166,63 35,0 70,-5 107,-15 36,-11 72,-27 107,-51l0 166c-39,22 -78,38 -117,48 -39,10 -83,15 -131,15 -66,0 -123,-10 -172,-29 -49,-19 -89,-46 -122,-82 -33,-35 -57,-77 -73,-125 -16,-49 -25,-103 -25,-161 0,-64 11,-121 32,-170 20,-50 49,-92 86,-126 36,-33 80,-59 129,-77 50,-17 105,-26 164,-26 43,0 82,3 115,10 33,6 67,17 101,31l0 221 -178 0z"></path>
   <path class="fil0" d="M3893 741l0 -99 -16 0c-40,0 -74,6 -103,19 -29,13 -53,30 -72,52 -19,22 -33,47 -41,75 -9,29 -13,58 -13,89 0,73 19,131 56,172 38,42 93,63 167,63 34,0 70,-5 106,-15 37,-11 73,-27 107,-51l0 166c-39,22 -77,38 -117,48 -39,10 -82,15 -130,15 -66,0 -124,-10 -172,-29 -49,-19 -90,-46 -122,-82 -33,-35 -57,-77 -74,-125 -16,-49 -24,-103 -24,-161 0,-64 10,-121 31,-170 21,-50 50,-92 86,-126 37,-33 80,-59 130,-77 50,-17 104,-26 163,-26 44,0 82,3 115,10 34,6 67,17 102,31l0 221 -179 0z"></path>
   <path class="fil0" d="M4476 1126c40,0 73,-9 99,-26 25,-16 45,-34 59,-52 7,-9 12,-21 15,-36 2,-15 4,-30 4,-47l0 -42c-51,1 -97,3 -137,6 -40,4 -73,12 -100,26 -39,19 -58,48 -58,87 0,32 12,54 35,66 24,12 51,18 83,18zm-235 -371l0 -203c21,-10 45,-20 71,-28 27,-9 54,-16 82,-23 28,-7 55,-12 82,-15 27,-4 52,-6 74,-6 87,0 151,13 193,38 41,26 70,59 85,100 10,26 17,56 19,90 3,33 4,66 4,97l0 250c0,10 1,18 2,26 2,8 3,15 6,19 6,11 17,16 33,16 20,0 41,-4 63,-12l0 141c-23,10 -48,17 -75,22 -28,4 -51,6 -72,6 -14,0 -28,-1 -43,-5 -14,-3 -27,-10 -40,-18 -13,-9 -24,-20 -33,-35 -9,-14 -15,-31 -18,-53 -11,13 -24,27 -39,40 -15,13 -32,25 -53,36 -20,10 -43,19 -69,26 -26,6 -56,9 -89,9 -42,0 -78,-6 -109,-18 -31,-12 -57,-28 -78,-49 -21,-20 -37,-43 -47,-70 -11,-26 -16,-54 -16,-82 0,-90 39,-154 119,-192 40,-21 92,-36 154,-45 63,-10 131,-16 206,-18l0 -21c0,-15 -1,-31 -3,-45 -1,-15 -5,-29 -10,-42 -8,-19 -23,-31 -45,-38 -21,-6 -48,-10 -80,-10 -26,0 -58,5 -96,13l0 99 -178 0z"></path>
   <path class="fil0" d="M5263 636c18,-43 48,-79 89,-108 40,-29 89,-43 146,-43 35,0 65,4 92,13 27,8 51,20 71,34l-96 166c-20,-16 -42,-28 -64,-35 -22,-7 -44,-10 -64,-10 -21,0 -41,4 -60,13 -18,10 -34,21 -48,36 -15,15 -26,31 -35,48 -8,16 -14,32 -17,48 -5,24 -8,50 -9,77 0,27 0,50 0,71l0 312 -202 0 0 -581 -106 0 0 -178 303 0 0 137z"></path>
   <path class="fil0" d="M6238 798c0,-48 -16,-88 -47,-119 -32,-31 -75,-46 -130,-46 -55,0 -100,14 -136,43 -35,29 -56,70 -61,122l374 0zm151 395c-42,21 -88,40 -140,57 -51,17 -113,25 -186,25 -65,0 -123,-9 -173,-28 -51,-19 -93,-46 -128,-80 -34,-35 -61,-77 -78,-126 -18,-49 -27,-104 -27,-164 0,-53 8,-103 26,-151 17,-48 43,-90 76,-127 34,-36 76,-65 127,-87 51,-21 109,-32 177,-32 117,0 206,33 268,97 62,65 93,158 93,280l0 34c0,15 0,27 -1,35l-563 0c1,54 21,98 62,134 40,36 95,53 165,53 37,0 69,-2 98,-7 28,-4 54,-10 77,-18 24,-7 46,-17 66,-27 20,-11 41,-22 61,-33l0 165z"></path>
   <path class="fil1" d="M2810 1461l-295 295 188 0 201 -201c13,-13 30,-20 48,-20l0 0c19,0 36,7 49,20l0 0 201 201 187 0 -295 -295c-39,-39 -90,-59 -142,-59 -51,0 -102,20 -142,59l0 0z"></path>
   <path class="fil2" d="M3202 0l-201 201c-13,13 -30,20 -49,20l0 0c-18,0 -35,-7 -48,-20l0 0 -201 -201 -188 0 295 295c40,39 91,59 142,59 52,0 103,-20 142,-59l0 0 295 -295 -187 0z"></path>
   <path class="fil3" d="M3260 605c-40,47 -94,82 -155,99l0 0c2,3 5,6 7,9l0 0c11,15 19,32 26,50l0 0c50,56 80,129 80,210l0 0c0,17 -2,35 -5,52l0 0c-9,55 -32,106 -66,148l0 0c-1,1 -2,2 -3,3l0 0c-37,44 -85,77 -141,96 42,-4 81,-13 116,-27l0 0c20,-7 37,-16 54,-26l0 0c4,-2 8,-4 11,-6l0 0c24,-15 46,-32 66,-51l0 0c36,-35 64,-78 83,-126l0 0c19,-49 29,-103 29,-161l0 0c0,-58 -9,-111 -28,-159l0 0c-16,-44 -40,-82 -70,-115l0 0c-1,2 -3,3 -4,4l0 0z"></path>
   <path class="fil4" d="M2947 1275l3 0 1 0 1 0 1 0c17,0 34,-1 50,-3l0 0c56,-19 104,-52 141,-96l0 0c1,-1 2,-2 3,-3l0 0c34,-42 57,-93 66,-148l0 0c3,-17 5,-35 5,-52l0 0c0,-81 -30,-154 -80,-210l0 0c3,8 7,16 10,25l0 0c7,29 11,58 11,89l0 0c0,31 -4,61 -13,90l0 0c-6,20 -15,38 -25,54l0 0c0,0 -8,14 -17,24l0 0c-38,44 -77,55 -77,55l0 0c0,0 -2,1 -4,1l0 0c-3,1 -8,3 -15,4l0 0c-17,4 -35,7 -55,7l0 0c0,0 0,0 0,0l0 0c0,0 0,0 0,0l0 0c-94,0 -177,40 -235,104 20,12 41,22 63,31l0 0c50,18 105,28 166,28z"></path>
   <path class="fil5" d="M2781 510c-17,7 -33,15 -48,24l0 0c-4,2 -7,4 -11,6l0 0c-26,16 -49,34 -70,55l0 0c-35,35 -62,78 -81,127l0 0c-19,49 -28,102 -28,158l0 0c0,60 9,114 29,163l0 0c17,43 40,79 68,110l0 0c1,0 1,0 1,0l0 0c40,-50 95,-87 158,-105l0 0c-1,0 -2,-1 -2,-2l0 0c-10,-13 -19,-27 -26,-41l0 0c-53,-57 -85,-133 -85,-216l0 0c0,-18 1,-35 4,-52l0 0c10,-58 35,-111 72,-154l0 0c1,-1 2,-3 4,-4l0 0c43,-49 102,-85 169,-99 -57,1 -108,11 -154,30l0 0z"></path>
   <path class="fil6" d="M2686 787l0 1 0 1c0,83 32,159 85,216 -18,-36 -27,-78 -27,-125l0 0c0,-32 4,-62 12,-91l0 0c8,-26 19,-48 34,-68l0 0c0,0 21,-36 67,-59l0 0 13 -6c6,-2 11,-5 17,-6l0 0c3,-1 6,-2 9,-3l0 0c7,-2 15,-3 23,-4l0 0c1,0 3,-1 4,-1l0 0c2,0 2,0 4,0l0 0c1,0 3,0 4,-1l0 0c8,0 15,-1 20,0l0 0c1,0 1,-1 2,-1l0 0c0,0 0,0 0,0l0 0c92,0 175,-39 233,-102l0 0c-19,-11 -39,-21 -61,-29l0 0c-50,-20 -108,-30 -172,-30l0 0c-6,0 -12,0 -18,1l0 0c-67,14 -126,50 -169,99l0 0c-2,1 -3,3 -4,4l0 0c-37,43 -62,96 -72,154l0 0c-2,16 -4,33 -4,50z"></path>
   <path class="fil7" d="M3714 1535l50 0 81 111 80 -111 21 0 0 221 -21 0 0 -186c-3,4 -8,11 -15,20 -5,8 -13,19 -24,33 -10,15 -24,33 -40,56l-4 0c-16,-23 -30,-42 -40,-56 -11,-14 -19,-25 -24,-33 -6,-8 -11,-14 -14,-20l0 186 -22 0 0 -201 -28 0 0 -20z"></path>
   <path class="fil7" d="M4227 1739c13,0 24,-2 35,-7 11,-4 21,-11 29,-19 8,-8 14,-18 18,-29 5,-12 7,-25 7,-39 0,-15 -2,-28 -7,-39 -5,-12 -11,-22 -19,-30 -8,-8 -18,-14 -29,-18 -11,-4 -22,-6 -34,-6 -13,0 -25,2 -36,6 -11,5 -20,11 -28,19 -8,8 -15,18 -19,29 -5,12 -7,25 -7,39 0,14 2,27 7,38 4,12 11,22 18,30 8,8 18,15 29,19 11,5 23,7 36,7zm-2 21c-18,0 -34,-3 -47,-9 -14,-7 -26,-15 -35,-26 -9,-11 -16,-23 -21,-37 -5,-14 -7,-28 -7,-43 0,-18 3,-33 9,-48 6,-14 14,-26 24,-35 11,-10 23,-18 36,-23 14,-6 29,-8 44,-8 15,0 30,2 43,7 14,6 25,13 35,23 10,9 18,21 24,36 6,14 9,30 9,48 0,15 -3,29 -8,43 -5,14 -12,26 -22,37 -10,10 -21,19 -35,25 -15,7 -31,10 -49,10z"></path>
   <path class="fil7" d="M4481 1535l39 0c18,20 33,38 46,54 14,16 25,30 36,42 10,12 19,23 26,32 8,9 14,16 19,23 12,14 20,24 24,28l0 -179 21 0 0 221 -14 0c-18,-21 -34,-39 -48,-55 -13,-17 -25,-31 -36,-43 -10,-13 -19,-24 -27,-33 -7,-9 -14,-16 -19,-22 -12,-15 -20,-25 -23,-29l0 182 -22 0 0 -201 -22 0 0 -20z"></path>
   <path class="fil7" d="M4970 1739c13,0 25,-2 35,-7 11,-4 21,-11 29,-19 8,-8 14,-18 18,-29 5,-12 7,-25 7,-39 0,-15 -2,-28 -7,-39 -5,-12 -11,-22 -19,-30 -8,-8 -18,-14 -29,-18 -10,-4 -22,-6 -34,-6 -13,0 -25,2 -36,6 -11,5 -20,11 -28,19 -8,8 -15,18 -19,29 -5,12 -7,25 -7,39 0,14 2,27 7,38 4,12 11,22 18,30 8,8 18,15 29,19 11,5 23,7 36,7zm-2 21c-18,0 -34,-3 -47,-9 -14,-7 -26,-15 -35,-26 -9,-11 -16,-23 -21,-37 -5,-14 -7,-28 -7,-43 0,-18 3,-33 9,-48 6,-14 14,-26 24,-35 11,-10 23,-18 36,-23 14,-6 29,-8 44,-8 15,0 30,2 43,7 14,6 25,13 35,23 10,9 18,21 24,36 6,14 9,30 9,48 0,15 -3,29 -8,43 -5,14 -12,26 -22,37 -10,10 -21,19 -35,25 -14,7 -31,10 -49,10z"></path>
   <polygon class="fil7" points="5222,1535 5271,1535 5271,1735 5380,1735 5380,1756 5250,1756 5250,1555 5222,1555 "></polygon>
   <path class="fil7" d="M5548 1521c-4,0 -7,-1 -10,-4 -3,-3 -4,-7 -4,-11 0,-4 1,-8 4,-11 3,-3 6,-4 10,-4 4,0 8,1 11,4 3,3 4,7 4,11 0,4 -1,8 -4,11 -3,3 -7,4 -11,4zm-38 14l49 0 0 221 -22 0 0 -201 -27 0 0 -20z"></path>
   <polygon class="fil7" points="5868,1583 5868,1555 5814,1555 5814,1756 5793,1756 5793,1555 5740,1555 5740,1583 5719,1583 5719,1535 5888,1535 5888,1583 "></polygon>
   <path class="fil7" d="M6072 1521c-4,0 -7,-1 -10,-4 -3,-3 -5,-7 -5,-11 0,-4 2,-8 5,-11 3,-3 6,-4 10,-4 4,0 7,1 10,4 3,3 5,7 5,11 0,4 -2,8 -5,11 -3,3 -6,4 -10,4zm-39 14l50 0 0 221 -22 0 0 -201 -28 0 0 -20z"></path>
   <polygon class="fil7" points="6239,1535 6288,1535 6288,1637 6386,1535 6414,1535 6312,1639 6423,1756 6392,1756 6288,1646 6288,1756 6267,1756 6267,1555 6239,1555 "></polygon>
  </g>
 </g>
</svg>
