<svg width="209" height="28" viewBox="0 0 209 28" fill="none" xmlns="http://www.w3.org/2000/svg">
<path d="M25.8842 19.16C25.4042 21.1067 24.5909 22.6933 23.4442 23.92C22.3242 25.1467 20.9509 26.04 19.3242 26.6C17.7242 27.1333 15.9509 27.4 14.0042 27.4C11.2842 27.4 8.92422 26.8667 6.92422 25.8C4.95089 24.7067 3.43089 23.1467 2.36422 21.12C1.29755 19.0933 0.764219 16.6533 0.764219 13.8C0.764219 10.9467 1.29755 8.50667 2.36422 6.48C3.43089 4.45333 4.95089 2.90667 6.92422 1.84C8.92422 0.746666 11.2709 0.199999 13.9642 0.199999C15.8842 0.199999 17.6442 0.466666 19.2442 0.999999C20.8709 1.53333 22.2442 2.36 23.3642 3.48C24.4842 4.6 25.2442 6.05333 25.6442 7.84L18.5642 10.68C18.2709 8.97333 17.7509 7.84 17.0042 7.28C16.2842 6.72 15.3509 6.44 14.2042 6.44C13.1376 6.44 12.2176 6.72 11.4442 7.28C10.6976 7.81333 10.1242 8.62667 9.72422 9.72C9.35089 10.7867 9.16422 12.1467 9.16422 13.8C9.16422 15.4267 9.33755 16.7867 9.68422 17.88C10.0576 18.9733 10.6176 19.8 11.3642 20.36C12.1376 20.8933 13.1376 21.16 14.3642 21.16C15.4576 21.16 16.3776 20.84 17.1242 20.2C17.8709 19.56 18.3642 18.56 18.6042 17.2L25.8842 19.16ZM41.1527 0.199999C43.8993 0.199999 46.246 0.746666 48.1927 1.84C50.166 2.90667 51.6727 4.45333 52.7127 6.48C53.7793 8.50667 54.3127 10.9467 54.3127 13.8C54.3127 16.6533 53.7793 19.0933 52.7127 21.12C51.6727 23.1467 50.166 24.7067 48.1927 25.8C46.246 26.8667 43.8993 27.4 41.1527 27.4C38.4327 27.4 36.0727 26.8667 34.0727 25.8C32.0993 24.7067 30.5793 23.1467 29.5127 21.12C28.446 19.0933 27.9127 16.6533 27.9127 13.8C27.9127 10.9467 28.446 8.50667 29.5127 6.48C30.5793 4.45333 32.0993 2.90667 34.0727 1.84C36.0727 0.746666 38.4327 0.199999 41.1527 0.199999ZM41.1527 6.44C40.0593 6.44 39.1527 6.72 38.4327 7.28C37.7393 7.81333 37.206 8.61333 36.8327 9.68C36.486 10.7467 36.3127 12.12 36.3127 13.8C36.3127 15.4533 36.486 16.8267 36.8327 17.92C37.206 18.9867 37.7393 19.8 38.4327 20.36C39.1527 20.8933 40.0593 21.16 41.1527 21.16C42.2193 21.16 43.1127 20.8933 43.8327 20.36C44.5527 19.8 45.086 18.9867 45.4327 17.92C45.7793 16.8267 45.9527 15.4533 45.9527 13.8C45.9527 12.12 45.7793 10.7467 45.4327 9.68C45.086 8.61333 44.5527 7.81333 43.8327 7.28C43.1127 6.72 42.2193 6.44 41.1527 6.44ZM70.3686 0.599999C74.5019 0.599999 77.6486 1.74667 79.8086 4.04C81.9686 6.33333 83.0486 9.58667 83.0486 13.8C83.0486 17.9867 81.9686 21.24 79.8086 23.56C77.6486 25.8533 74.5019 27 70.3686 27H58.2486V0.599999H70.3686ZM69.3686 21.04C71.3419 21.04 72.7153 20.4533 73.4886 19.28C74.2619 18.08 74.6486 16.2533 74.6486 13.8C74.6486 11.3467 74.2619 9.53333 73.4886 8.36C72.7153 7.16 71.3419 6.56 69.3686 6.56H66.4086V21.04H69.3686ZM99.1605 0.199999C101.907 0.199999 104.254 0.746666 106.2 1.84C108.174 2.90667 109.68 4.45333 110.72 6.48C111.787 8.50667 112.32 10.9467 112.32 13.8C112.32 16.6533 111.787 19.0933 110.72 21.12C109.68 23.1467 108.174 24.7067 106.2 25.8C104.254 26.8667 101.907 27.4 99.1605 27.4C96.4405 27.4 94.0805 26.8667 92.0805 25.8C90.1071 24.7067 88.5871 23.1467 87.5205 21.12C86.4538 19.0933 85.9205 16.6533 85.9205 13.8C85.9205 10.9467 86.4538 8.50667 87.5205 6.48C88.5871 4.45333 90.1071 2.90667 92.0805 1.84C94.0805 0.746666 96.4405 0.199999 99.1605 0.199999ZM99.1605 6.44C98.0671 6.44 97.1605 6.72 96.4405 7.28C95.7471 7.81333 95.2138 8.61333 94.8405 9.68C94.4938 10.7467 94.3205 12.12 94.3205 13.8C94.3205 15.4533 94.4938 16.8267 94.8405 17.92C95.2138 18.9867 95.7471 19.8 96.4405 20.36C97.1605 20.8933 98.0671 21.16 99.1605 21.16C100.227 21.16 101.12 20.8933 101.84 20.36C102.56 19.8 103.094 18.9867 103.44 17.92C103.787 16.8267 103.96 15.4533 103.96 13.8C103.96 12.12 103.787 10.7467 103.44 9.68C103.094 8.61333 102.56 7.81333 101.84 7.28C101.12 6.72 100.227 6.44 99.1605 6.44ZM141.136 0.599999V27H132.176L124.976 13.92L123.296 10.36H123.216L123.376 15.56V27H116.256V0.599999H125.176L132.376 13.68L134.096 17.24H134.136L133.976 12.04V0.599999H141.136ZM154.182 0.599999V27H146.022V0.599999H154.182ZM183.189 19.16C182.709 21.1067 181.896 22.6933 180.749 23.92C179.629 25.1467 178.256 26.04 176.629 26.6C175.029 27.1333 173.256 27.4 171.309 27.4C168.589 27.4 166.229 26.8667 164.229 25.8C162.256 24.7067 160.736 23.1467 159.669 21.12C158.602 19.0933 158.069 16.6533 158.069 13.8C158.069 10.9467 158.602 8.50667 159.669 6.48C160.736 4.45333 162.256 2.90667 164.229 1.84C166.229 0.746666 168.576 0.199999 171.269 0.199999C173.189 0.199999 174.949 0.466666 176.549 0.999999C178.176 1.53333 179.549 2.36 180.669 3.48C181.789 4.6 182.549 6.05333 182.949 7.84L175.869 10.68C175.576 8.97333 175.056 7.84 174.309 7.28C173.589 6.72 172.656 6.44 171.509 6.44C170.442 6.44 169.522 6.72 168.749 7.28C168.002 7.81333 167.429 8.62667 167.029 9.72C166.656 10.7867 166.469 12.1467 166.469 13.8C166.469 15.4267 166.642 16.7867 166.989 17.88C167.362 18.9733 167.922 19.8 168.669 20.36C169.442 20.8933 170.442 21.16 171.669 21.16C172.762 21.16 173.682 20.84 174.429 20.2C175.176 19.56 175.669 18.56 175.909 17.2L183.189 19.16ZM197.177 0.199999C199.684 0.199999 201.911 0.546666 203.857 1.24C205.804 1.90667 207.511 2.93333 208.977 4.32L205.417 9.56C204.217 8.54667 202.937 7.76 201.577 7.2C200.244 6.61333 198.764 6.32 197.137 6.32C196.311 6.32 195.644 6.4 195.137 6.56C194.631 6.72 194.257 6.94667 194.017 7.24C193.804 7.50667 193.697 7.81333 193.697 8.16C193.697 8.58667 193.951 8.93333 194.457 9.2C194.991 9.46667 195.724 9.70667 196.657 9.92L200.657 10.84C203.324 11.4533 205.311 12.36 206.617 13.56C207.924 14.7333 208.577 16.3467 208.577 18.4C208.577 20.4 208.071 22.0667 207.057 23.4C206.071 24.7333 204.711 25.7333 202.977 26.4C201.244 27.0667 199.284 27.4 197.097 27.4C195.364 27.4 193.671 27.2267 192.017 26.88C190.391 26.5333 188.897 26.04 187.537 25.4C186.177 24.7333 185.004 23.9467 184.017 23.04L187.537 17.64C188.257 18.3333 189.137 18.96 190.177 19.52C191.217 20.0533 192.324 20.48 193.497 20.8C194.671 21.12 195.804 21.28 196.897 21.28C197.671 21.28 198.297 21.2133 198.777 21.08C199.284 20.92 199.644 20.7067 199.857 20.44C200.071 20.1733 200.177 19.8533 200.177 19.48C200.177 19.0267 200.004 18.6667 199.657 18.4C199.311 18.1067 198.657 17.8533 197.697 17.64L193.297 16.64C191.857 16.32 190.524 15.88 189.297 15.32C188.071 14.76 187.084 13.9867 186.337 13C185.617 11.9867 185.257 10.6667 185.257 9.04C185.257 7.30667 185.724 5.77333 186.657 4.44C187.591 3.10667 188.951 2.06667 190.737 1.32C192.524 0.573333 194.671 0.199999 197.177 0.199999Z" fill="#172554" />
</svg>
