<svg xmlns="http://www.w3.org/2000/svg" xmlns:xlink="http://www.w3.org/1999/xlink" version="1.1" width="266.457pt" height="153.071pt" viewBox="0 0 266.457 153.071">
<defs>
<clipPath id="clip_0">
<path transform="matrix(1,0,0,-1,0,153.071)" d="M0 153.071H266.457V0H0Z"/>
</clipPath>
</defs>
<g id="layer_1" data-name="Слой 1">
<path transform="matrix(1,0,0,-1,178.5833,64.1708)" d="M0 0H-26.07V11.047H-62.167V0H-90.708V-24.997H-62.167V-35.777H-26.07V-24.997H0Z" fill="#0077be"/>
<g clip-path="url(#clip_0)">
<path transform="matrix(1,0,0,-1,100.6009,91.145908)" d="M0 0C-.035 .045-.078 .079-.132 .102-.185 .125-.249 .136-.322 .136H-1.049C-1.15 .136-1.239 .124-1.316 .099-1.393 .074-1.458 .032-1.515-.026-1.571-.086-1.62-.163-1.663-.259-1.705-.354-1.744-.471-1.78-.609L-2.972-4.404H-2.988L-4.143-.599C-4.176-.461-4.214-.345-4.258-.251-4.301-.157-4.356-.082-4.422-.024-4.488 .033-4.566 .074-4.656 .099-4.747 .124-4.854 .136-4.98 .136H-5.687C-5.81 .136-5.908 .092-5.981 .003-6.056-.086-6.093-.214-6.093-.382V-6.071C-6.093-6.104-6.085-6.135-6.07-6.161-6.055-6.187-6.028-6.208-5.988-6.225-5.948-6.241-5.896-6.254-5.83-6.265-5.765-6.273-5.683-6.279-5.584-6.279-5.483-6.279-5.4-6.273-5.336-6.265-5.272-6.254-5.219-6.241-5.178-6.225-5.137-6.208-5.109-6.187-5.094-6.161-5.079-6.135-5.071-6.104-5.071-6.071V-.874H-5.063L-3.571-6.066C-3.563-6.104-3.547-6.135-3.522-6.161-3.498-6.187-3.464-6.209-3.421-6.228-3.379-6.245-3.325-6.259-3.259-6.267-3.194-6.274-3.114-6.279-3.021-6.279-2.928-6.279-2.849-6.276-2.783-6.271-2.717-6.267-2.663-6.256-2.621-6.239-2.578-6.224-2.545-6.201-2.52-6.173-2.496-6.146-2.478-6.109-2.466-6.066L-.925-.874H-.917V-6.071C-.917-6.104-.909-6.135-.892-6.161-.876-6.187-.849-6.208-.81-6.225-.772-6.241-.72-6.254-.654-6.265-.588-6.273-.507-6.279-.408-6.279-.307-6.279-.224-6.273-.158-6.265-.092-6.254-.04-6.241 0-6.225 .04-6.208 .067-6.187 .082-6.161 .097-6.135 .104-6.104 .104-6.071V-.382C.104-.3 .096-.227 .078-.162 .06-.098 .034-.044 0 0" fill="#0077be"/>
<path transform="matrix(1,0,0,-1,107.0828,96.4828)" d="M0 0C-.014 .039-.031 .068-.051 .087-.072 .104-.094 .113-.12 .113H-2.036V1.904H-.429C-.405 1.904-.382 1.912-.361 1.929-.341 1.945-.324 1.972-.31 2.01-.296 2.048-.286 2.097-.279 2.159-.272 2.222-.269 2.3-.269 2.396-.269 2.486-.272 2.564-.279 2.628-.286 2.692-.296 2.743-.31 2.78-.324 2.818-.341 2.846-.361 2.864-.382 2.882-.405 2.892-.429 2.892H-2.036V4.451H-.138C-.113 4.451-.091 4.461-.072 4.479-.053 4.497-.037 4.526-.023 4.565-.009 4.605 .001 4.657 .008 4.722 .015 4.786 .019 4.865 .019 4.957 .019 5.057 .015 5.139 .008 5.203 .001 5.268-.009 5.32-.023 5.361-.037 5.402-.053 5.432-.072 5.448-.092 5.465-.113 5.473-.138 5.473H-2.794C-2.884 5.473-2.961 5.441-3.022 5.377-3.084 5.312-3.115 5.209-3.115 5.064V-.498C-3.115-.644-3.084-.747-3.022-.812-2.961-.876-2.884-.908-2.794-.908H-.12C-.094-.908-.072-.898-.051-.88-.031-.862-.014-.834 0-.794 .014-.754 .024-.702 .031-.638 .038-.573 .041-.493 .041-.397 .041-.302 .038-.222 .031-.156 .024-.092 .014-.04 0 0" fill="#0077be"/>
<path transform="matrix(1,0,0,-1,113.305,96.334308)" d="M0 0H-2.152C-2.094 .088-2.038 .187-1.983 .296-1.929 .404-1.876 .534-1.826 .686-1.775 .836-1.725 1.016-1.676 1.223-1.627 1.43-1.579 1.676-1.531 1.963-1.483 2.249-1.435 2.581-1.387 2.961-1.339 3.341-1.291 3.78-1.242 4.28H0ZM1.687-.071C1.656-.024 1.604 0 1.53 0H1.079V4.916C1.079 5.054 1.051 5.156 .997 5.224 .941 5.291 .867 5.324 .771 5.324H-1.943C-2.039 5.324-2.11 5.291-2.157 5.224-2.204 5.156-2.235 5.049-2.251 4.9-2.309 4.299-2.364 3.775-2.418 3.33-2.471 2.885-2.524 2.5-2.576 2.174-2.628 1.849-2.681 1.573-2.734 1.348-2.788 1.123-2.841 .93-2.896 .767-2.951 .604-3.007 .464-3.066 .345-3.125 .227-3.188 .111-3.253 0H-3.5C-3.568 0-3.62-.021-3.654-.062-3.688-.104-3.703-.171-3.697-.267V-2.556C-3.697-2.589-3.69-2.617-3.676-2.64-3.663-2.662-3.637-2.682-3.6-2.696-3.563-2.711-3.514-2.723-3.453-2.73-3.393-2.739-3.316-2.743-3.223-2.743-3.129-2.743-3.052-2.739-2.992-2.73-2.931-2.723-2.883-2.711-2.846-2.696-2.809-2.682-2.782-2.663-2.767-2.64-2.752-2.617-2.744-2.589-2.744-2.557V-1.057H.791V-2.557C.791-2.589 .798-2.617 .813-2.64 .828-2.663 .854-2.682 .891-2.696 .927-2.711 .975-2.723 1.034-2.73 1.092-2.739 1.168-2.743 1.261-2.743 1.356-2.743 1.434-2.739 1.494-2.73 1.554-2.723 1.602-2.711 1.638-2.696 1.673-2.682 1.698-2.662 1.711-2.64 1.725-2.617 1.731-2.589 1.731-2.556V-.271C1.731-.186 1.717-.119 1.687-.071" fill="#0077be"/>
<path transform="matrix(1,0,0,-1,121.8021,95.974)" d="M0 0C-.011 .039-.024 .065-.042 .079-.058 .092-.08 .099-.107 .099-.143 .099-.192 .072-.257 .02-.321-.033-.403-.092-.503-.157-.604-.223-.723-.283-.863-.337-1.003-.391-1.168-.418-1.36-.418-1.571-.418-1.761-.375-1.93-.288-2.098-.2-2.242-.068-2.361 .109-2.48 .286-2.572 .513-2.636 .786-2.701 1.061-2.733 1.386-2.733 1.76-2.733 2.102-2.703 2.409-2.642 2.682-2.582 2.954-2.493 3.187-2.377 3.379-2.26 3.571-2.119 3.719-1.953 3.822-1.787 3.926-1.598 3.978-1.387 3.978-1.194 3.978-1.029 3.948-.891 3.89-.752 3.832-.632 3.768-.532 3.696-.432 3.625-.351 3.561-.287 3.502-.225 3.444-.172 3.415-.131 3.415-.106 3.415-.084 3.425-.065 3.444-.046 3.464-.029 3.495-.016 3.538-.002 3.58 .008 3.636 .013 3.705 .019 3.773 .021 3.857 .021 3.955 .021 4.047 .019 4.124 .015 4.187 .011 4.248 .005 4.303-.003 4.348-.012 4.394-.023 4.432-.037 4.461-.05 4.49-.076 4.527-.113 4.573-.149 4.618-.215 4.673-.308 4.736-.401 4.8-.506 4.856-.624 4.904-.74 4.953-.867 4.992-1.004 5.022-1.142 5.053-1.284 5.067-1.433 5.067-1.797 5.067-2.132 4.994-2.435 4.846-2.739 4.698-2.999 4.48-3.216 4.195-3.433 3.909-3.602 3.556-3.723 3.135-3.843 2.714-3.904 2.232-3.904 1.69-3.904 1.157-3.849 .69-3.739 .29-3.629-.111-3.472-.445-3.266-.714-3.061-.981-2.811-1.183-2.518-1.317-2.224-1.452-1.895-1.52-1.53-1.52-1.344-1.52-1.17-1.502-1.01-1.466-.85-1.429-.707-1.384-.582-1.33-.457-1.275-.352-1.219-.266-1.16-.179-1.101-.121-1.052-.09-1.014-.061-.977-.039-.942-.024-.913-.011-.884 0-.849 .008-.807 .016-.766 .022-.717 .027-.659 .031-.602 .033-.531 .033-.449 .033-.331 .03-.236 .024-.165 .019-.095 .011-.04 0 0" fill="#ffffff"/>
<path transform="matrix(1,0,0,-1,127.4036,96.4828)" d="M0 0C-.014 .039-.031 .068-.051 .087-.072 .104-.095 .113-.119 .113H-2.036V1.904H-.429C-.405 1.904-.382 1.912-.361 1.929-.341 1.945-.324 1.972-.31 2.01-.296 2.048-.286 2.097-.279 2.159-.272 2.222-.269 2.3-.269 2.396-.269 2.486-.272 2.564-.279 2.628-.286 2.692-.296 2.743-.31 2.78-.324 2.818-.341 2.846-.361 2.864-.382 2.882-.405 2.892-.429 2.892H-2.036V4.451H-.138C-.113 4.451-.092 4.461-.072 4.479-.053 4.497-.037 4.526-.023 4.565-.009 4.605 .001 4.657 .008 4.722 .015 4.786 .018 4.865 .018 4.957 .018 5.057 .015 5.139 .008 5.203 .001 5.268-.009 5.32-.023 5.361-.037 5.402-.053 5.432-.073 5.448-.092 5.465-.113 5.473-.138 5.473H-2.794C-2.885 5.473-2.961 5.441-3.022 5.377-3.084 5.312-3.115 5.209-3.115 5.064V-.498C-3.115-.644-3.084-.747-3.022-.812-2.961-.876-2.884-.908-2.794-.908H-.119C-.095-.908-.072-.898-.051-.88-.031-.862-.014-.834 0-.794 .014-.754 .024-.702 .031-.638 .038-.573 .041-.493 .041-.397 .041-.302 .038-.222 .031-.156 .024-.092 .014-.04 0 0" fill="#ffffff"/>
<path transform="matrix(1,0,0,-1,132.5325,93.4974)" d="M0 0C-.039-.141-.095-.261-.169-.361-.243-.461-.338-.54-.456-.596-.572-.651-.717-.68-.89-.68H-1.376V1.489H-.915C-.802 1.489-.693 1.48-.587 1.462-.481 1.444-.38 1.4-.284 1.331-.188 1.262-.107 1.155-.041 1.01 .025 .865 .058 .681 .058 .457 .058 .292 .039 .14 0 0M.829 1.8C.715 1.956 .575 2.085 .413 2.188 .25 2.289 .089 2.358-.07 2.396-.229 2.435-.365 2.459-.479 2.471-.592 2.482-.712 2.487-.838 2.487H-2.09C-2.199 2.487-2.288 2.449-2.355 2.372-2.422 2.294-2.456 2.179-2.456 2.023V-3.72C-2.456-3.753-2.447-3.783-2.431-3.81-2.415-3.836-2.386-3.856-2.345-3.873-2.304-3.89-2.249-3.902-2.179-3.913-2.109-3.922-2.022-3.928-1.918-3.928-1.812-3.928-1.724-3.922-1.656-3.913-1.587-3.902-1.533-3.89-1.492-3.873-1.45-3.856-1.421-3.835-1.403-3.809-1.386-3.782-1.376-3.753-1.376-3.72V-1.678H-.933C-.583-1.678-.278-1.629-.019-1.53 .24-1.432 .458-1.288 .637-1.099 .814-.91 .949-.678 1.043-.401 1.136-.125 1.183 .192 1.183 .551 1.183 .81 1.152 1.044 1.092 1.253 1.032 1.462 .944 1.644 .829 1.8" fill="#ffffff"/>
<path transform="matrix(1,0,0,-1,138.9066,95.9037)" d="M0 0C-.042-.11-.102-.202-.177-.275-.253-.35-.342-.405-.445-.443-.549-.481-.676-.5-.827-.5H-1.611V1.313H-.968C-.77 1.313-.608 1.292-.484 1.249-.361 1.207-.259 1.146-.179 1.067-.1 .988-.039 .891 .002 .773 .044 .657 .064 .525 .064 .377 .064 .236 .043 .11 0 0M-1.611 3.919H-1.062C-.895 3.919-.76 3.9-.659 3.864-.559 3.828-.476 3.776-.409 3.709-.344 3.643-.294 3.558-.261 3.456-.228 3.354-.211 3.239-.211 3.112-.211 2.997-.227 2.889-.257 2.785-.287 2.682-.333 2.591-.395 2.515-.457 2.438-.535 2.377-.628 2.332-.722 2.288-.848 2.266-1.004 2.266H-1.611ZM.881 1.468C.786 1.598 .675 1.704 .547 1.786 .419 1.868 .279 1.926 .128 1.959 .245 2.011 .351 2.08 .442 2.166 .534 2.251 .611 2.35 .675 2.462 .737 2.573 .785 2.697 .818 2.834 .852 2.971 .867 3.116 .867 3.271 .867 3.547 .826 3.787 .744 3.991 .662 4.195 .544 4.364 .389 4.497 .234 4.63 .044 4.729-.183 4.796-.408 4.861-.685 4.894-1.011 4.894H-2.347C-2.437 4.894-2.513 4.862-2.574 4.798-2.637 4.733-2.667 4.63-2.667 4.485V-1.077C-2.667-1.223-2.636-1.326-2.574-1.391-2.513-1.455-2.437-1.487-2.346-1.487H-.931C-.717-1.487-.522-1.472-.348-1.44-.174-1.409-.01-1.36 .144-1.295 .297-1.229 .437-1.146 .565-1.043 .693-.941 .803-.819 .895-.679 .986-.537 1.059-.375 1.11-.19 1.163-.007 1.188 .199 1.188 .426 1.188 .643 1.161 .838 1.106 1.012 1.051 1.187 .977 1.338 .881 1.468" fill="#ffffff"/>
<path transform="matrix(1,0,0,-1,143.6048,91.0296)" d="M0 0C-.041 .017-.096 .029-.163 .04-.231 .05-.319 .055-.425 .055-.529 .055-.614 .05-.683 .04-.751 .029-.806 .017-.848 0-.891-.017-.921-.038-.937-.064-.956-.091-.965-.12-.965-.153V-6.187C-.965-6.221-.956-6.251-.937-6.276-.921-6.303-.891-6.324-.851-6.341-.81-6.357-.754-6.37-.685-6.381-.615-6.39-.529-6.396-.425-6.396-.319-6.396-.231-6.39-.163-6.381-.096-6.37-.041-6.357 0-6.341 .041-6.324 .07-6.303 .088-6.276 .105-6.251 .114-6.221 .114-6.187V-.153C.114-.12 .105-.091 .088-.064 .07-.038 .041-.017 0 0" fill="#ffffff"/>
<path transform="matrix(1,0,0,-1,150.2425,96.139)" d="M0 0C-.005 .07-.014 .125-.024 .165-.035 .204-.049 .23-.065 .244-.082 .257-.104 .264-.131 .264-.167 .264-.217 .237-.281 .185-.346 .132-.428 .073-.527 .008-.628-.058-.748-.118-.888-.172-1.027-.226-1.192-.253-1.385-.253-1.596-.253-1.785-.21-1.954-.123-2.122-.035-2.267 .097-2.386 .274-2.505 .451-2.597 .678-2.66 .951-2.726 1.226-2.757 1.551-2.757 1.925-2.757 2.267-2.728 2.574-2.667 2.847-2.606 3.119-2.518 3.352-2.401 3.544-2.284 3.736-2.143 3.884-1.978 3.987-1.811 4.091-1.622 4.143-1.411 4.143-1.219 4.143-1.054 4.113-.915 4.055-.776 3.997-.656 3.933-.557 3.861-.457 3.79-.375 3.726-.312 3.667-.249 3.609-.196 3.58-.155 3.58-.131 3.58-.108 3.59-.09 3.609-.07 3.629-.054 3.66-.04 3.703-.026 3.745-.017 3.801-.011 3.87-.006 3.938-.003 4.022-.003 4.12-.003 4.212-.005 4.289-.01 4.352-.014 4.413-.02 4.468-.027 4.513-.036 4.559-.047 4.597-.061 4.626-.074 4.655-.1 4.692-.137 4.738-.174 4.783-.239 4.838-.332 4.901-.426 4.965-.531 5.021-.647 5.069-.765 5.118-.892 5.157-1.028 5.187-1.166 5.218-1.309 5.232-1.457 5.232-1.822 5.232-2.156 5.159-2.459 5.011-2.763 4.863-3.023 4.646-3.24 4.36-3.457 4.074-3.626 3.721-3.747 3.3-3.867 2.879-3.928 2.397-3.928 1.855-3.928 1.322-3.873 .855-3.764 .455-3.653 .054-3.496-.28-3.29-.549-3.085-.816-2.835-1.018-2.542-1.152-2.248-1.287-1.919-1.354-1.555-1.354-1.368-1.354-1.195-1.337-1.034-1.301-.874-1.264-.731-1.219-.606-1.165-.481-1.11-.376-1.054-.29-.995-.203-.936-.146-.887-.115-.849-.085-.812-.062-.777-.049-.748-.035-.719-.024-.684-.017-.642-.008-.601-.002-.552 .002-.494 .006-.437 .009-.366 .009-.284 .009-.166 .006-.071 0 0" fill="#ffffff"/>
<path transform="matrix(1,0,0,-1,156.8099,91.0101)" d="M0 0H-2.522C-2.618 0-2.695-.033-2.754-.101-2.813-.168-2.843-.271-2.843-.409V-6.218C-2.843-6.25-2.834-6.279-2.816-6.304-2.799-6.328-2.77-6.349-2.729-6.365-2.688-6.382-2.632-6.395-2.563-6.402-2.493-6.41-2.407-6.415-2.304-6.415-2.197-6.415-2.11-6.41-2.042-6.402-1.974-6.395-1.919-6.382-1.878-6.365-1.837-6.349-1.809-6.328-1.79-6.304-1.772-6.279-1.764-6.25-1.764-6.218V-1.066H0C.027-1.066 .051-1.058 .071-1.04 .092-1.021 .109-.992 .123-.951 .137-.909 .147-.855 .153-.787 .161-.72 .164-.637 .164-.538 .164-.344 .15-.205 .123-.123 .096-.041 .055 0 0 0" fill="#0077be"/>
<path transform="matrix(1,0,0,-1,161.3226,93.4974)" d="M0 0C-.039-.141-.096-.261-.17-.361-.244-.461-.34-.54-.456-.596-.573-.651-.718-.68-.891-.68H-1.377V1.489H-.916C-.803 1.489-.694 1.48-.588 1.462-.482 1.444-.382 1.4-.285 1.331-.188 1.262-.107 1.155-.042 1.01 .024 .865 .057 .681 .057 .457 .057 .292 .038 .14 0 0M.829 1.8C.714 1.956 .575 2.085 .412 2.188 .249 2.289 .088 2.358-.07 2.396-.229 2.435-.365 2.459-.479 2.471-.593 2.482-.712 2.487-.838 2.487H-2.091C-2.2 2.487-2.288 2.449-2.355 2.372-2.423 2.294-2.456 2.179-2.456 2.023V-3.72C-2.456-3.753-2.448-3.783-2.432-3.81-2.415-3.836-2.387-3.856-2.346-3.873-2.305-3.89-2.249-3.902-2.179-3.913-2.109-3.922-2.022-3.928-1.919-3.928-1.812-3.928-1.725-3.922-1.656-3.913-1.588-3.902-1.533-3.89-1.492-3.873-1.451-3.856-1.422-3.835-1.404-3.809-1.387-3.782-1.377-3.753-1.377-3.72V-1.678H-.934C-.583-1.678-.278-1.629-.02-1.53 .239-1.432 .457-1.288 .636-1.099 .813-.91 .949-.678 1.042-.401 1.136-.125 1.182 .192 1.182 .551 1.182 .81 1.151 1.044 1.092 1.253 1.031 1.462 .943 1.644 .829 1.8" fill="#0077be"/>
<path transform="matrix(1,0,0,-1,168.3509,90.98959)" d="M0 0C-.074 .01-.175 .015-.301 .015-.425 .015-.525 .012-.602 .007-.68 .002-.739-.009-.783-.025-.828-.042-.86-.063-.883-.092-.904-.12-.923-.156-.937-.203L-1.547-2.166C-1.62-2.396-1.687-2.616-1.749-2.825-1.811-3.033-1.868-3.248-1.923-3.469H-1.936C-2.004-3.258-2.075-3.05-2.148-2.845-2.223-2.639-2.301-2.433-2.382-2.226L-3.128-.291C-3.153-.226-3.178-.172-3.202-.131-3.227-.09-3.263-.059-3.309-.037-3.355-.016-3.417-.002-3.493 .005-3.57 .011-3.673 .015-3.801 .015-3.933 .015-4.037 .009-4.115-.003-4.193-.015-4.249-.038-4.282-.074-4.314-.11-4.327-.16-4.32-.225-4.313-.289-4.291-.372-4.253-.474L-2.506-4.751C-2.555-4.877-2.602-4.979-2.645-5.056-2.688-5.133-2.732-5.193-2.775-5.236-2.819-5.279-2.865-5.309-2.915-5.322-2.964-5.338-3.018-5.345-3.074-5.345-3.15-5.345-3.217-5.334-3.272-5.312-3.329-5.291-3.378-5.268-3.42-5.241-3.462-5.215-3.499-5.19-3.528-5.168-3.559-5.145-3.586-5.133-3.61-5.133-3.659-5.133-3.696-5.173-3.719-5.254-3.742-5.334-3.754-5.47-3.754-5.66-3.754-5.766-3.752-5.854-3.747-5.924-3.743-5.994-3.737-6.053-3.729-6.099-3.721-6.145-3.711-6.182-3.698-6.209-3.687-6.237-3.669-6.263-3.647-6.286-3.625-6.309-3.591-6.334-3.545-6.359-3.498-6.386-3.443-6.409-3.381-6.429-3.318-6.448-3.251-6.464-3.18-6.476-3.108-6.487-3.036-6.492-2.962-6.492-2.76-6.492-2.58-6.466-2.424-6.411-2.267-6.357-2.121-6.26-1.989-6.12-1.856-5.98-1.732-5.791-1.616-5.551-1.5-5.311-1.382-5.006-1.261-4.638L.166-.365C.19-.286 .204-.223 .206-.173 .209-.124 .194-.085 .161-.058 .128-.029 .074-.011 0 0" fill="#0077be"/>
<path transform="matrix(1,0,0,-1,174.4925,91.1107)" d="M0 0C-.055 .067-.132 .101-.23 .101H-3.744C-3.84 .101-3.917 .067-3.975 0-4.032-.067-4.061-.17-4.061-.309V-6.117C-4.061-6.149-4.053-6.179-4.036-6.203-4.02-6.228-3.991-6.248-3.95-6.265-3.909-6.281-3.854-6.294-3.784-6.302-3.715-6.31-3.627-6.314-3.523-6.314-3.417-6.314-3.329-6.31-3.261-6.302-3.192-6.294-3.138-6.281-3.097-6.265-3.056-6.248-3.026-6.228-3.009-6.203-2.991-6.179-2.982-6.149-2.982-6.117V-.978H-.996V-6.117C-.996-6.149-.988-6.179-.97-6.203-.952-6.228-.923-6.248-.882-6.265-.841-6.281-.785-6.294-.716-6.302-.646-6.31-.559-6.314-.455-6.314-.352-6.314-.265-6.31-.194-6.302-.125-6.294-.069-6.281-.028-6.265 .013-6.248 .041-6.228 .058-6.203 .074-6.179 .082-6.149 .082-6.117V-.309C.082-.17 .055-.067 0 0" fill="#0077be"/>
<path transform="matrix(1,0,0,-1,135.3099,81.2093)" d="M0 0C-3.871 .109-3.474 1.53-3.474 1.53H-12.643V5.132C-12.033 4.373-10.909 3.71-8.83 3.22-3.729 2.017 3.358 2.623 3.284 1.212 3.227 .109 1.498-.042 0 0M-.769 8.862C2.545 8.862 2.646 7.269 2.646 7.269H12.258C11.893 6.426 11.703 5.519 11.632 4.574 8.76 6.357 2.781 6.48 .191 6.727-1.927 6.928-4.185 6.865-4.185 7.913-4.185 8.96-1.326 8.862-.769 8.862M25.673 8.46C29.991 8.46 30.265 6.547 30.265 6.547H39.694C39.694 6.547 40.069 8.364 37.865 10.004 37.14 10.543 34.474 12.433 25.646 12.433 17.735 12.433 14.107 10.574 12.582 7.914 12.286 9.298 10.423 12.433-.382 12.433-8.385 12.433-11.467 11.202-12.643 9.848V12.114H-18.323-19.743-20.559-22.969-24.389L-27.838 3.467-31.288 12.114H-32.708-35.118-35.934-37.354-43.034V-3.504H-35.118V6.509L-31.124-3.504H-30.619-29.704-29.199-26.478-25.974-25.058-24.553L-20.559 6.509V-3.504H-12.643V-1.119C-11.376-2.533-8.513-3.984-2.081-3.984 8.076-3.984 11.824-2.813 12.882-.079 14.857-2.562 19.057-3.984 25.044-3.984 33.571-3.984 34.829-2.117 34.829-2.117L36.059-3.504H39.694V5.399H27.586V1.764H30.947C30.947 1.764 29.964 .206 25.755 .206 21.546 .206 20.577 2.529 20.577 4.224 20.577 5.918 21.354 8.46 25.673 8.46" fill="#ffffff"/>
</g>
</g>
</svg>
