<svg width="138" height="28" viewBox="0 0 138 28" fill="none" xmlns="http://www.w3.org/2000/svg">
<path d="M25.6247 0.599999V27H16.6647L9.46469 13.92L7.78469 10.36H7.70469L7.86469 15.56V27H0.744688V0.599999H9.66469L16.8647 13.68L18.5847 17.24H18.6247L18.4647 12.04V0.599999H25.6247ZM42.7503 0.199999C45.497 0.199999 47.8436 0.746666 49.7903 1.84C51.7636 2.90667 53.2703 4.45333 54.3103 6.48C55.377 8.50667 55.9103 10.9467 55.9103 13.8C55.9103 16.6533 55.377 19.0933 54.3103 21.12C53.2703 23.1467 51.7636 24.7067 49.7903 25.8C47.8436 26.8667 45.497 27.4 42.7503 27.4C40.0303 27.4 37.6703 26.8667 35.6703 25.8C33.697 24.7067 32.177 23.1467 31.1103 21.12C30.0436 19.0933 29.5103 16.6533 29.5103 13.8C29.5103 10.9467 30.0436 8.50667 31.1103 6.48C32.177 4.45333 33.697 2.90667 35.6703 1.84C37.6703 0.746666 40.0303 0.199999 42.7503 0.199999ZM42.7503 6.44C41.657 6.44 40.7503 6.72 40.0303 7.28C39.337 7.81333 38.8036 8.61333 38.4303 9.68C38.0836 10.7467 37.9103 12.12 37.9103 13.8C37.9103 15.4533 38.0836 16.8267 38.4303 17.92C38.8036 18.9867 39.337 19.8 40.0303 20.36C40.7503 20.8933 41.657 21.16 42.7503 21.16C43.817 21.16 44.7103 20.8933 45.4303 20.36C46.1503 19.8 46.6836 18.9867 47.0303 17.92C47.377 16.8267 47.5503 15.4533 47.5503 13.8C47.5503 12.12 47.377 10.7467 47.0303 9.68C46.6836 8.61333 46.1503 7.81333 45.4303 7.28C44.7103 6.72 43.817 6.44 42.7503 6.44ZM84.5441 0.599999L75.4241 27H65.7441L56.6241 0.599999H65.1441L69.3841 15.76L70.7441 20.92L72.0241 15.84L76.3041 0.599999H84.5441ZM98.4534 0.199999C101.2 0.199999 103.547 0.746666 105.493 1.84C107.467 2.90667 108.973 4.45333 110.013 6.48C111.08 8.50667 111.613 10.9467 111.613 13.8C111.613 16.6533 111.08 19.0933 110.013 21.12C108.973 23.1467 107.467 24.7067 105.493 25.8C103.547 26.8667 101.2 27.4 98.4534 27.4C95.7334 27.4 93.3734 26.8667 91.3734 25.8C89.4001 24.7067 87.8801 23.1467 86.8134 21.12C85.7468 19.0933 85.2134 16.6533 85.2134 13.8C85.2134 10.9467 85.7468 8.50667 86.8134 6.48C87.8801 4.45333 89.4001 2.90667 91.3734 1.84C93.3734 0.746666 95.7334 0.199999 98.4534 0.199999ZM98.4534 6.44C97.3601 6.44 96.4534 6.72 95.7334 7.28C95.0401 7.81333 94.5068 8.61333 94.1334 9.68C93.7868 10.7467 93.6134 12.12 93.6134 13.8C93.6134 15.4533 93.7868 16.8267 94.1334 17.92C94.5068 18.9867 95.0401 19.8 95.7334 20.36C96.4534 20.8933 97.3601 21.16 98.4534 21.16C99.5201 21.16 100.413 20.8933 101.133 20.36C101.853 19.8 102.387 18.9867 102.733 17.92C103.08 16.8267 103.253 15.4533 103.253 13.8C103.253 12.12 103.08 10.7467 102.733 9.68C102.387 8.61333 101.853 7.81333 101.133 7.28C100.413 6.72 99.5201 6.44 98.4534 6.44ZM126.197 0.199999C128.704 0.199999 130.93 0.546666 132.877 1.24C134.824 1.90667 136.53 2.93333 137.997 4.32L134.437 9.56C133.237 8.54667 131.957 7.76 130.597 7.2C129.264 6.61333 127.784 6.32 126.157 6.32C125.33 6.32 124.664 6.4 124.157 6.56C123.65 6.72 123.277 6.94667 123.037 7.24C122.824 7.50667 122.717 7.81333 122.717 8.16C122.717 8.58667 122.97 8.93333 123.477 9.2C124.01 9.46667 124.744 9.70667 125.677 9.92L129.677 10.84C132.344 11.4533 134.33 12.36 135.637 13.56C136.944 14.7333 137.597 16.3467 137.597 18.4C137.597 20.4 137.09 22.0667 136.077 23.4C135.09 24.7333 133.73 25.7333 131.997 26.4C130.264 27.0667 128.304 27.4 126.117 27.4C124.384 27.4 122.69 27.2267 121.037 26.88C119.41 26.5333 117.917 26.04 116.557 25.4C115.197 24.7333 114.024 23.9467 113.037 23.04L116.557 17.64C117.277 18.3333 118.157 18.96 119.197 19.52C120.237 20.0533 121.344 20.48 122.517 20.8C123.69 21.12 124.824 21.28 125.917 21.28C126.69 21.28 127.317 21.2133 127.797 21.08C128.304 20.92 128.664 20.7067 128.877 20.44C129.09 20.1733 129.197 19.8533 129.197 19.48C129.197 19.0267 129.024 18.6667 128.677 18.4C128.33 18.1067 127.677 17.8533 126.717 17.64L122.317 16.64C120.877 16.32 119.544 15.88 118.317 15.32C117.09 14.76 116.104 13.9867 115.357 13C114.637 11.9867 114.277 10.6667 114.277 9.04C114.277 7.30667 114.744 5.77333 115.677 4.44C116.61 3.10667 117.97 2.06667 119.757 1.32C121.544 0.573333 123.69 0.199999 126.197 0.199999Z" fill="white"/>
</svg>
