<svg width="98" height="28" viewBox="0 0 98 28" fill="none" xmlns="http://www.w3.org/2000/svg">
<path d="M13.8766 0.199999C16.3832 0.199999 18.6099 0.546666 20.5566 1.24C22.5032 1.90667 24.2099 2.93333 25.6766 4.32L22.1166 9.56C20.9166 8.54667 19.6366 7.76 18.2766 7.2C16.9432 6.61333 15.4632 6.32 13.8366 6.32C13.0099 6.32 12.3432 6.4 11.8366 6.56C11.3299 6.72 10.9566 6.94667 10.7166 7.24C10.5032 7.50667 10.3966 7.81333 10.3966 8.16C10.3966 8.58667 10.6499 8.93333 11.1566 9.2C11.6899 9.46667 12.4232 9.70667 13.3566 9.92L17.3566 10.84C20.0232 11.4533 22.0099 12.36 23.3166 13.56C24.6232 14.7333 25.2766 16.3467 25.2766 18.4C25.2766 20.4 24.7699 22.0667 23.7566 23.4C22.7699 24.7333 21.4099 25.7333 19.6766 26.4C17.9432 27.0667 15.9832 27.4 13.7966 27.4C12.0632 27.4 10.3699 27.2267 8.71656 26.88C7.0899 26.5333 5.59656 26.04 4.23656 25.4C2.87656 24.7333 1.70323 23.9467 0.716563 23.04L4.23656 17.64C4.95656 18.3333 5.83656 18.96 6.87656 19.52C7.91656 20.0533 9.02323 20.48 10.1966 20.8C11.3699 21.12 12.5032 21.28 13.5966 21.28C14.3699 21.28 14.9966 21.2133 15.4766 21.08C15.9832 20.92 16.3432 20.7067 16.5566 20.44C16.7699 20.1733 16.8766 19.8533 16.8766 19.48C16.8766 19.0267 16.7032 18.6667 16.3566 18.4C16.0099 18.1067 15.3566 17.8533 14.3966 17.64L9.99656 16.64C8.55656 16.32 7.22323 15.88 5.99656 15.32C4.7699 14.76 3.78323 13.9867 3.03656 13C2.31656 11.9867 1.95656 10.6667 1.95656 9.04C1.95656 7.30667 2.42323 5.77333 3.35656 4.44C4.2899 3.10667 5.6499 2.06667 7.43656 1.32C9.22323 0.573333 11.3699 0.199999 13.8766 0.199999ZM36.975 0.599999V27H28.815V0.599999H36.975ZM66.7419 0.599999V27H57.7819L50.5819 13.92L48.9019 10.36H48.8219L48.9819 15.56V27H41.8619V0.599999H50.7819L57.9819 13.68L59.7019 17.24H59.7419L59.5819 12.04V0.599999H66.7419ZM83.8675 0.199999C86.6142 0.199999 88.9608 0.746666 90.9075 1.84C92.8808 2.90667 94.3875 4.45333 95.4275 6.48C96.4942 8.50667 97.0275 10.9467 97.0275 13.8C97.0275 16.6533 96.4942 19.0933 95.4275 21.12C94.3875 23.1467 92.8808 24.7067 90.9075 25.8C88.9608 26.8667 86.6142 27.4 83.8675 27.4C81.1475 27.4 78.7875 26.8667 76.7875 25.8C74.8142 24.7067 73.2942 23.1467 72.2275 21.12C71.1608 19.0933 70.6275 16.6533 70.6275 13.8C70.6275 10.9467 71.1608 8.50667 72.2275 6.48C73.2942 4.45333 74.8142 2.90667 76.7875 1.84C78.7875 0.746666 81.1475 0.199999 83.8675 0.199999ZM83.8675 6.44C82.7742 6.44 81.8675 6.72 81.1475 7.28C80.4542 7.81333 79.9208 8.61333 79.5475 9.68C79.2008 10.7467 79.0275 12.12 79.0275 13.8C79.0275 15.4533 79.2008 16.8267 79.5475 17.92C79.9208 18.9867 80.4542 19.8 81.1475 20.36C81.8675 20.8933 82.7742 21.16 83.8675 21.16C84.9342 21.16 85.8275 20.8933 86.5475 20.36C87.2675 19.8 87.8008 18.9867 88.1475 17.92C88.4942 16.8267 88.6675 15.4533 88.6675 13.8C88.6675 12.12 88.4942 10.7467 88.1475 9.68C87.8008 8.61333 87.2675 7.81333 86.5475 7.28C85.8275 6.72 84.9342 6.44 83.8675 6.44Z" fill="white"/>
</svg>
