<svg width="104" height="28" viewBox="0 0 104 28" fill="none" xmlns="http://www.w3.org/2000/svg">
<path d="M6.71828 23.76L5.27828 21.04H23.7583V27H0.478281V21.28L17.1183 3.84L18.5183 6.56H0.678281V0.599999H23.3183V6.32L6.71828 23.76ZM27.108 27V0.599999H48.388V6.72H35.268V11H45.748V16.68H35.268V20.88H48.908V27H27.108ZM65.3452 0.599999C67.6118 0.599999 69.5318 0.959999 71.1052 1.68C72.7052 2.37333 73.9185 3.4 74.7452 4.76C75.5985 6.09333 76.0252 7.73333 76.0252 9.68C76.0252 11.6267 75.5985 13.28 74.7452 14.64C73.9185 15.9733 72.7052 17 71.1052 17.72C69.5318 18.4133 67.6118 18.76 65.3452 18.76H60.3852V27H52.2252V0.599999H65.3452ZM64.0252 12.84C65.2252 12.84 66.1585 12.5867 66.8252 12.08C67.4918 11.5467 67.8252 10.7467 67.8252 9.68C67.8252 8.61333 67.4918 7.82667 66.8252 7.32C66.1585 6.78667 65.2252 6.52 64.0252 6.52H60.3852V12.84H64.0252ZM103.844 0.599999V15.92C103.844 19.76 102.818 22.64 100.764 24.56C98.7109 26.4533 95.6442 27.4 91.5642 27.4C87.4576 27.4 84.3776 26.4533 82.3242 24.56C80.2709 22.64 79.2442 19.76 79.2442 15.92V0.599999H87.4442V16.36C87.4442 17.96 87.7909 19.16 88.4842 19.96C89.1776 20.76 90.2042 21.16 91.5642 21.16C92.9242 21.16 93.9509 20.76 94.6442 19.96C95.3376 19.16 95.6842 17.96 95.6842 16.36V0.599999H103.844Z" fill="white"/>
</svg>
