<svg width="250" height="27" viewBox="0 0 250 27" fill="none" xmlns="http://www.w3.org/2000/svg">
<path d="M32.1555 0.599999V27H24.9555V16.44L25.1155 7.92H25.0355L19.2355 27H12.6755L6.95547 7.92H6.83547L6.99547 16.44V27H-0.204531V0.599999H11.3155L14.8755 13.12L16.1955 18.36H16.2755L17.5955 13.12L21.1555 0.599999H32.1555ZM36.983 27V0.599999H58.263V6.72H45.143V11H55.623V16.68H45.143V20.88H58.783V27H36.983ZM74.2202 0.599999C78.3535 0.599999 81.5002 1.74667 83.6602 4.04C85.8202 6.33333 86.9002 9.58667 86.9002 13.8C86.9002 17.9867 85.8202 21.24 83.6602 23.56C81.5002 25.8533 78.3535 27 74.2202 27H62.1002V0.599999H74.2202ZM73.2202 21.04C75.1935 21.04 76.5668 20.4533 77.3402 19.28C78.1135 18.08 78.5002 16.2533 78.5002 13.8C78.5002 11.3467 78.1135 9.53333 77.3402 8.36C76.5668 7.16 75.1935 6.56 73.2202 6.56H70.2602V21.04H73.2202ZM95.1889 27L87.6289 0.599999H96.4289L100.149 20.52L104.309 0.599999H111.509L115.869 20.4L119.509 0.599999H127.989L120.429 27H111.629L109.069 15.72L107.989 9.12H107.869L106.789 15.72L104.229 27H95.1889ZM138.62 0.599999V27H130.46V0.599999H138.62ZM168.386 0.599999V27H159.426L152.226 13.92L150.546 10.36H150.466L150.626 15.56V27H143.506V0.599999H152.426L159.626 13.68L161.346 17.24H161.386L161.226 12.04V0.599999H168.386ZM198.152 0.599999V27H189.192L181.992 13.92L180.312 10.36H180.232L180.392 15.56V27H173.272V0.599999H182.192L189.392 13.68L191.112 17.24H191.152L190.992 12.04V0.599999H198.152ZM203.038 27V0.599999H224.318V6.72H211.198V11H221.678V16.68H211.198V20.88H224.838V27H203.038ZM241.675 0.599999C244.955 0.599999 247.488 1.36 249.275 2.88C251.088 4.37333 251.995 6.37333 251.995 8.88C251.995 11.68 251.115 13.8 249.355 15.24C247.595 16.68 245.062 17.4 241.755 17.4L240.955 17.84H236.155V27H228.155V0.599999H241.675ZM240.355 12.28C241.502 12.28 242.355 12.0667 242.915 11.64C243.502 11.1867 243.795 10.4533 243.795 9.44C243.795 8.42667 243.502 7.69333 242.915 7.24C242.355 6.78667 241.502 6.56 240.355 6.56H236.155V12.28H240.355ZM245.195 14L253.515 27H244.595L238.155 15.44L245.195 14Z" fill="white"/>
</svg>
