<svg width="142" height="28" viewBox="0 0 142 28" fill="none" xmlns="http://www.w3.org/2000/svg">
<path d="M12.4956 27.4C10.1756 27.4 8.10896 26.8933 6.29563 25.88C4.48229 24.8667 3.05563 23.3467 2.01563 21.32C0.975625 19.2933 0.455625 16.8133 0.455625 13.88C0.455625 11 0.988958 8.54667 2.05563 6.52C3.14896 4.46667 4.70896 2.90667 6.73563 1.84C8.76229 0.746666 11.1623 0.199999 13.9356 0.199999C17.0556 0.199999 19.5623 0.759999 21.4556 1.88C23.3756 3 24.8556 4.77333 25.8956 7.2L18.2956 10.04C18.029 8.73333 17.5223 7.81333 16.7756 7.28C16.029 6.72 15.0956 6.44 13.9756 6.44C12.829 6.44 11.869 6.72 11.0956 7.28C10.349 7.81333 9.78896 8.62667 9.41563 9.72C9.04229 10.8133 8.85563 12.1733 8.85563 13.8C8.85563 15.56 9.05563 17 9.45563 18.12C9.88229 19.24 10.5223 20.0667 11.3756 20.6C12.229 21.1067 13.2823 21.36 14.5356 21.36C15.1756 21.36 15.7623 21.2933 16.2956 21.16C16.829 21 17.2956 20.7733 17.6956 20.48C18.1223 20.1867 18.4423 19.8267 18.6556 19.4C18.869 18.9467 18.9756 18.4267 18.9756 17.84V17.64H13.7756V12.4H25.8556V27H20.3756L19.7356 20.32L21.0156 21.6C20.5356 23.4667 19.5756 24.9067 18.1356 25.92C16.6956 26.9067 14.8156 27.4 12.4956 27.4ZM30.3228 27V0.599999H51.6028V6.72H38.4828V11H48.9628V16.68H38.4828V20.88H52.1228V27H30.3228ZM87.8 0.599999V27H80.6V16.44L80.76 7.92H80.68L74.88 27H68.32L62.6 7.92H62.48L62.64 16.44V27H55.44V0.599999H66.96L70.52 13.12L71.84 18.36H71.92L73.24 13.12L76.8 0.599999H87.8ZM103.588 0.199999C106.094 0.199999 108.321 0.546666 110.268 1.24C112.214 1.90667 113.921 2.93333 115.388 4.32L111.828 9.56C110.628 8.54667 109.348 7.76 107.988 7.2C106.654 6.61333 105.174 6.32 103.548 6.32C102.721 6.32 102.054 6.4 101.548 6.56C101.041 6.72 100.668 6.94667 100.428 7.24C100.214 7.50667 100.108 7.81333 100.108 8.16C100.108 8.58667 100.361 8.93333 100.868 9.2C101.401 9.46667 102.134 9.70667 103.068 9.92L107.068 10.84C109.734 11.4533 111.721 12.36 113.028 13.56C114.334 14.7333 114.988 16.3467 114.988 18.4C114.988 20.4 114.481 22.0667 113.468 23.4C112.481 24.7333 111.121 25.7333 109.388 26.4C107.654 27.0667 105.694 27.4 103.508 27.4C101.774 27.4 100.081 27.2267 98.4275 26.88C96.8008 26.5333 95.3075 26.04 93.9475 25.4C92.5875 24.7333 91.4142 23.9467 90.4275 23.04L93.9475 17.64C94.6675 18.3333 95.5475 18.96 96.5875 19.52C97.6275 20.0533 98.7342 20.48 99.9075 20.8C101.081 21.12 102.214 21.28 103.308 21.28C104.081 21.28 104.708 21.2133 105.188 21.08C105.694 20.92 106.054 20.7067 106.268 20.44C106.481 20.1733 106.588 19.8533 106.588 19.48C106.588 19.0267 106.414 18.6667 106.068 18.4C105.721 18.1067 105.068 17.8533 104.108 17.64L99.7075 16.64C98.2675 16.32 96.9342 15.88 95.7075 15.32C94.4808 14.76 93.4942 13.9867 92.7475 13C92.0275 11.9867 91.6675 10.6667 91.6675 9.04C91.6675 7.30667 92.1342 5.77333 93.0675 4.44C94.0008 3.10667 95.3608 2.06667 97.1475 1.32C98.9342 0.573333 101.081 0.199999 103.588 0.199999ZM129.486 0.199999C131.993 0.199999 134.219 0.546666 136.166 1.24C138.113 1.90667 139.819 2.93333 141.286 4.32L137.726 9.56C136.526 8.54667 135.246 7.76 133.886 7.2C132.553 6.61333 131.073 6.32 129.446 6.32C128.619 6.32 127.953 6.4 127.446 6.56C126.939 6.72 126.566 6.94667 126.326 7.24C126.113 7.50667 126.006 7.81333 126.006 8.16C126.006 8.58667 126.259 8.93333 126.766 9.2C127.299 9.46667 128.033 9.70667 128.966 9.92L132.966 10.84C135.633 11.4533 137.619 12.36 138.926 13.56C140.233 14.7333 140.886 16.3467 140.886 18.4C140.886 20.4 140.379 22.0667 139.366 23.4C138.379 24.7333 137.019 25.7333 135.286 26.4C133.553 27.0667 131.593 27.4 129.406 27.4C127.673 27.4 125.979 27.2267 124.326 26.88C122.699 26.5333 121.206 26.04 119.846 25.4C118.486 24.7333 117.313 23.9467 116.326 23.04L119.846 17.64C120.566 18.3333 121.446 18.96 122.486 19.52C123.526 20.0533 124.633 20.48 125.806 20.8C126.979 21.12 128.113 21.28 129.206 21.28C129.979 21.28 130.606 21.2133 131.086 21.08C131.593 20.92 131.953 20.7067 132.166 20.44C132.379 20.1733 132.486 19.8533 132.486 19.48C132.486 19.0267 132.313 18.6667 131.966 18.4C131.619 18.1067 130.966 17.8533 130.006 17.64L125.606 16.64C124.166 16.32 122.833 15.88 121.606 15.32C120.379 14.76 119.393 13.9867 118.646 13C117.926 11.9867 117.566 10.6667 117.566 9.04C117.566 7.30667 118.033 5.77333 118.966 4.44C119.899 3.10667 121.259 2.06667 123.046 1.32C124.833 0.573333 126.979 0.199999 129.486 0.199999Z" fill="white"/>
</svg>
