<svg width="142" height="27" viewBox="0 0 142 27" fill="none" xmlns="http://www.w3.org/2000/svg">
<path d="M14.4483 0.599999C17.7283 0.599999 20.2616 1.36 22.0483 2.88C23.8616 4.37333 24.7683 6.37333 24.7683 8.88C24.7683 11.68 23.8883 13.8 22.1283 15.24C20.3683 16.68 17.8349 17.4 14.5283 17.4L13.7283 17.84H8.92828V27H0.928281V0.599999H14.4483ZM13.1283 12.28C14.2749 12.28 15.1283 12.0667 15.6883 11.64C16.2749 11.1867 16.5683 10.4533 16.5683 9.44C16.5683 8.42667 16.2749 7.69333 15.6883 7.24C15.1283 6.78667 14.2749 6.56 13.1283 6.56H8.92828V12.28H13.1283ZM17.9683 14L26.2883 27H17.3683L10.9283 15.44L17.9683 14ZM28.858 27V0.599999H50.138V6.72H37.018V11H47.498V16.68H37.018V20.88H50.658V27H28.858ZM86.3352 0.599999V27H79.1352V16.44L79.2952 7.92H79.2152L73.4152 27H66.8552L61.1352 7.92H61.0152L61.1752 16.44V27H53.9752V0.599999H65.4952L69.0552 13.12L70.3752 18.36H70.4552L71.7752 13.12L75.3352 0.599999H86.3352ZM91.1627 27V0.599999H112.443V6.72H99.3227V11H109.803V16.68H99.3227V20.88H112.963V27H91.1627ZM128.4 0.599999C132.533 0.599999 135.68 1.74667 137.84 4.04C140 6.33333 141.08 9.58667 141.08 13.8C141.08 17.9867 140 21.24 137.84 23.56C135.68 25.8533 132.533 27 128.4 27H116.28V0.599999H128.4ZM127.4 21.04C129.373 21.04 130.747 20.4533 131.52 19.28C132.293 18.08 132.68 16.2533 132.68 13.8C132.68 11.3467 132.293 9.53333 131.52 8.36C130.747 7.16 129.373 6.56 127.4 6.56H124.44V21.04H127.4Z" fill="white"/>
</svg>
