<svg width="166" height="28" viewBox="0 0 166 28" fill="none" xmlns="http://www.w3.org/2000/svg">
<path d="M14.0561 0.599999C16.3228 0.599999 18.2428 0.959999 19.8161 1.68C21.4161 2.37333 22.6294 3.4 23.4561 4.76C24.3094 6.09333 24.7361 7.73333 24.7361 9.68C24.7361 11.6267 24.3094 13.28 23.4561 14.64C22.6294 15.9733 21.4161 17 19.8161 17.72C18.2428 18.4133 16.3228 18.76 14.0561 18.76H9.09609V27H0.936094V0.599999H14.0561ZM12.7361 12.84C13.9361 12.84 14.8694 12.5867 15.5361 12.08C16.2028 11.5467 16.5361 10.7467 16.5361 9.68C16.5361 8.61333 16.2028 7.82667 15.5361 7.32C14.8694 6.78667 13.9361 6.52 12.7361 6.52H9.09609V12.84H12.7361ZM41.9952 0.599999C45.2752 0.599999 47.8085 1.36 49.5952 2.88C51.4085 4.37333 52.3152 6.37333 52.3152 8.88C52.3152 11.68 51.4352 13.8 49.6752 15.24C47.9152 16.68 45.3818 17.4 42.0752 17.4L41.2752 17.84H36.4752V27H28.4752V0.599999H41.9952ZM40.6752 12.28C41.8218 12.28 42.6752 12.0667 43.2352 11.64C43.8218 11.1867 44.1152 10.4533 44.1152 9.44C44.1152 8.42667 43.8218 7.69333 43.2352 7.24C42.6752 6.78667 41.8218 6.56 40.6752 6.56H36.4752V12.28H40.6752ZM45.5152 14L53.8352 27H44.9152L38.4752 15.44L45.5152 14ZM80.4848 0.599999V15.92C80.4848 19.76 79.4582 22.64 77.4048 24.56C75.3515 26.4533 72.2848 27.4 68.2048 27.4C64.0982 27.4 61.0182 26.4533 58.9648 24.56C56.9115 22.64 55.8848 19.76 55.8848 15.92V0.599999H64.0848V16.36C64.0848 17.96 64.4315 19.16 65.1248 19.96C65.8182 20.76 66.8448 21.16 68.2048 21.16C69.5648 21.16 70.5915 20.76 71.2848 19.96C71.9782 19.16 72.3248 17.96 72.3248 16.36V0.599999H80.4848ZM109.722 0.599999V27H100.762L93.5623 13.92L91.8823 10.36H91.8023L91.9623 15.56V27H84.8423V0.599999H93.7623L100.962 13.68L102.682 17.24H102.722L102.562 12.04V0.599999H109.722ZM138.688 0.599999V15.92C138.688 19.76 137.661 22.64 135.608 24.56C133.555 26.4533 130.488 27.4 126.408 27.4C122.301 27.4 119.221 26.4533 117.168 24.56C115.115 22.64 114.088 19.76 114.088 15.92V0.599999H122.288V16.36C122.288 17.96 122.635 19.16 123.328 19.96C124.021 20.76 125.048 21.16 126.408 21.16C127.768 21.16 128.795 20.76 129.488 19.96C130.181 19.16 130.528 17.96 130.528 16.36V0.599999H138.688ZM154.005 0.199999C156.512 0.199999 158.739 0.546666 160.685 1.24C162.632 1.90667 164.339 2.93333 165.805 4.32L162.245 9.56C161.045 8.54667 159.765 7.76 158.405 7.2C157.072 6.61333 155.592 6.32 153.965 6.32C153.139 6.32 152.472 6.4 151.965 6.56C151.459 6.72 151.085 6.94667 150.845 7.24C150.632 7.50667 150.525 7.81333 150.525 8.16C150.525 8.58667 150.779 8.93333 151.285 9.2C151.819 9.46667 152.552 9.70667 153.485 9.92L157.485 10.84C160.152 11.4533 162.139 12.36 163.445 13.56C164.752 14.7333 165.405 16.3467 165.405 18.4C165.405 20.4 164.899 22.0667 163.885 23.4C162.899 24.7333 161.539 25.7333 159.805 26.4C158.072 27.0667 156.112 27.4 153.925 27.4C152.192 27.4 150.499 27.2267 148.845 26.88C147.219 26.5333 145.725 26.04 144.365 25.4C143.005 24.7333 141.832 23.9467 140.845 23.04L144.365 17.64C145.085 18.3333 145.965 18.96 147.005 19.52C148.045 20.0533 149.152 20.48 150.325 20.8C151.499 21.12 152.632 21.28 153.725 21.28C154.499 21.28 155.125 21.2133 155.605 21.08C156.112 20.92 156.472 20.7067 156.685 20.44C156.899 20.1733 157.005 19.8533 157.005 19.48C157.005 19.0267 156.832 18.6667 156.485 18.4C156.139 18.1067 155.485 17.8533 154.525 17.64L150.125 16.64C148.685 16.32 147.352 15.88 146.125 15.32C144.899 14.76 143.912 13.9867 143.165 13C142.445 11.9867 142.085 10.6667 142.085 9.04C142.085 7.30667 142.552 5.77333 143.485 4.44C144.419 3.10667 145.779 2.06667 147.565 1.32C149.352 0.573333 151.499 0.199999 154.005 0.199999Z" fill="white"/>
</svg>
