<svg width="120" height="28" viewBox="0 0 120 28" fill="none" xmlns="http://www.w3.org/2000/svg">
<path d="M0.600156 27V0.599999H14.6402C17.9468 0.626665 20.3868 1.24 21.9602 2.44C23.5602 3.61333 24.3602 5.36 24.3602 7.68C24.3602 9.2 23.8935 10.5067 22.9602 11.6C22.0535 12.6933 20.6268 13.3867 18.6802 13.68V13.72C20.8402 13.9867 22.4402 14.68 23.4802 15.8C24.5202 16.92 25.0402 18.3067 25.0402 19.96C25.0402 22.2533 24.2402 24 22.6402 25.2C21.0668 26.4 18.6802 27 15.4802 27H0.600156ZM8.44016 21.48H13.6002C14.6402 21.48 15.4135 21.28 15.9202 20.88C16.4268 20.4533 16.6802 19.8533 16.6802 19.08C16.6802 18.3067 16.4268 17.72 15.9202 17.32C15.4135 16.92 14.6402 16.72 13.6002 16.72H8.44016V21.48ZM8.44016 11.08H13.0002C15.0002 11.08 16.0002 10.2933 16.0002 8.72C16.0002 7.14667 15.0002 6.36 13.0002 6.36H8.44016V11.08ZM40.6136 0.199999C43.3603 0.199999 45.7069 0.746666 47.6536 1.84C49.6269 2.90667 51.1336 4.45333 52.1736 6.48C53.2403 8.50667 53.7736 10.9467 53.7736 13.8C53.7736 16.6533 53.2403 19.0933 52.1736 21.12C51.1336 23.1467 49.6269 24.7067 47.6536 25.8C45.7069 26.8667 43.3603 27.4 40.6136 27.4C37.8936 27.4 35.5336 26.8667 33.5336 25.8C31.5603 24.7067 30.0403 23.1467 28.9736 21.12C27.9069 19.0933 27.3736 16.6533 27.3736 13.8C27.3736 10.9467 27.9069 8.50667 28.9736 6.48C30.0403 4.45333 31.5603 2.90667 33.5336 1.84C35.5336 0.746666 37.8936 0.199999 40.6136 0.199999ZM40.6136 6.44C39.5203 6.44 38.6136 6.72 37.8936 7.28C37.2003 7.81333 36.6669 8.61333 36.2936 9.68C35.9469 10.7467 35.7736 12.12 35.7736 13.8C35.7736 15.4533 35.9469 16.8267 36.2936 17.92C36.6669 18.9867 37.2003 19.8 37.8936 20.36C38.6136 20.8933 39.5203 21.16 40.6136 21.16C41.6803 21.16 42.5736 20.8933 43.2936 20.36C44.0136 19.8 44.5469 18.9867 44.8936 17.92C45.2403 16.8267 45.4136 15.4533 45.4136 13.8C45.4136 12.12 45.2403 10.7467 44.8936 9.68C44.5469 8.61333 44.0136 7.81333 43.2936 7.28C42.5736 6.72 41.6803 6.44 40.6136 6.44ZM62.1264 27L54.5664 0.599999H63.3664L67.0864 20.52L71.2464 0.599999H78.4464L82.8064 20.4L86.4464 0.599999H94.9264L87.3664 27H78.5664L76.0064 15.72L74.9264 9.12H74.8064L73.7264 15.72L71.1664 27H62.1264ZM119.976 27H111.576L110.096 21.52H102.056L100.536 27H92.3761L101.256 0.599999H111.056L119.976 27ZM103.416 16.24H108.776L106.096 6.4L103.416 16.24Z" fill="white"/>
</svg>
